<?xml version="1.0" encoding="utf-8"?>
<!-- Generator: Adobe Illustrator 23.0.1, SVG Export Plug-In . SVG Version: 6.00 Build 0)  -->
<svg version="1.1" id="Layer_1" xmlns="http://www.w3.org/2000/svg" xmlns:xlink="http://www.w3.org/1999/xlink" x="0px" y="0px"
	 viewBox="0 0 418.5 210.1" style="enable-background:new 0 0 418.5 210.1;" xml:space="preserve">
<style type="text/css">
	.st0{fill:#76C043;}
	.st1{fill:#ED1B24;}
	.st2{fill:#E1E2E4;}
	.st3{fill:#58595B;}
	.st4{fill:#898B8D;}
</style>
<path class="st0" d="M242,80.3h-16.3v73.9H242V80.3z M217.6,119.3c-1.2-3.3-2.9-6-5-8.3c-2.2-2.3-4.7-4-7.7-5.2
	c-3-1.2-6.3-1.8-9.9-1.8c-3.7,0-7.2,0.6-10.4,1.9c-3.2,1.2-6,3-8.3,5.2c-2.3,2.2-4.2,5-5.6,8.2c-1.4,3.2-2.1,6.8-2.1,10.8
	c0,4.1,0.7,7.8,2.1,10.9c1.4,3.2,3.3,5.9,5.8,8.1c2.4,2.2,5.3,3.8,8.6,5c3.3,1.1,6.7,1.7,10.4,1.7c5,0,9.3-0.9,13-2.7
	c3.7-1.8,6.8-4.3,9-7.7l-11.1-7c-1.1,1.5-2.5,2.7-4.3,3.7c-1.8,0.9-3.9,1.4-6.5,1.4c-1.4,0-2.8-0.2-4.2-0.7
	c-1.3-0.5-2.5-1.1-3.6-1.9c-1.1-0.8-2-1.8-2.6-2.9c-0.7-1.1-1.1-2.3-1.2-3.7h35.3c0.1-0.6,0.1-1.2,0.1-1.9v-2
	C219.4,126.2,218.8,122.5,217.6,119.3 M184,124.3c0.1-1.2,0.4-2.4,1-3.6c0.6-1.1,1.4-2.1,2.3-3c1-0.8,2.1-1.5,3.4-2
	c1.3-0.5,2.7-0.7,4.3-0.7c3.2,0,5.6,0.9,7.2,2.7c1.6,1.8,2.4,4,2.4,6.5H184z M146.3,134.3c-0.6,1.5-1.3,2.8-2.3,3.9
	c-1,1.1-2.2,2-3.7,2.7c-1.5,0.7-3.1,1-4.9,1s-3.4-0.3-4.8-1c-1.4-0.7-2.6-1.6-3.6-2.7c-1-1.1-1.7-2.5-2.2-4
	c-0.5-1.5-0.8-3.1-0.8-4.7c0-1.7,0.3-3.3,0.8-4.8c0.5-1.5,1.3-2.8,2.2-3.9c1-1.1,2.2-2,3.6-2.6c1.4-0.7,3-1,4.8-1s3.5,0.3,4.9,1
	c1.4,0.7,2.7,1.5,3.7,2.7c1,1.1,1.8,2.5,2.4,4c0.6,1.5,0.8,3.1,0.8,4.7C147.1,131.2,146.8,132.8,146.3,134.3 M162.3,105.5h-15.1v6.3
	H147c-1.7-2.6-3.9-4.5-6.7-5.8c-2.8-1.2-5.7-1.9-8.8-1.9c-3.7,0-6.9,0.7-9.8,2.1c-2.9,1.4-5.3,3.3-7.3,5.6c-2,2.3-3.5,5.1-4.5,8.1
	c-1,3.1-1.6,6.3-1.6,9.7s0.5,6.6,1.6,9.6c1,3,2.6,5.7,4.5,8c2,2.3,4.4,4.1,7.3,5.4c2.9,1.3,6.2,2,9.9,2c3.3,0,6.2-0.6,8.7-1.8
	c2.5-1.2,4.6-2.7,6.1-4.7h0.3v2.9c0,4.1-1.1,7.4-3.4,9.9c-2.2,2.5-5.7,3.7-10.4,3.7c-2.7,0-5.5-0.5-8.4-1.5c-2.8-1-5.4-2.6-7.8-4.6
	l-8,11.4c3.3,2.5,7.2,4.4,11.8,5.7c4.5,1.3,8.9,2,13.2,2c4.3,0,8.2-0.6,11.8-1.7c3.5-1.1,6.6-2.9,9-5.2c2.5-2.3,4.4-5.2,5.8-8.7
	c1.4-3.5,2.1-7.7,2.1-12.4V105.5z M102.5,154.2v-30.1c0-2.4-0.3-4.8-0.9-7.2c-0.6-2.4-1.6-4.5-3-6.4c-1.4-1.9-3.2-3.4-5.5-4.5
	c-2.3-1.2-5.1-1.8-8.3-1.8c-1.7,0-3.3,0.2-4.8,0.7c-1.5,0.5-2.9,1-4.2,1.8c-1.3,0.7-2.4,1.6-3.3,2.6c-0.9,1-1.7,2-2.3,3.1H70v-6.7
	H54.4v48.7h16.1v-26.4c0-1.4,0.2-2.7,0.5-4c0.4-1.3,0.9-2.4,1.6-3.4c0.7-1,1.6-1.7,2.7-2.3c1.1-0.6,2.3-0.8,3.8-0.8
	c1.4,0,2.6,0.3,3.6,0.8c0.9,0.6,1.7,1.3,2.2,2.2c0.5,0.9,0.9,2,1.1,3.3c0.2,1.2,0.3,2.5,0.3,3.9v26.6H102.5z M10.5,120.8
	c1.5-1.4,3.3-2.5,5.4-3.5c2.1-1,4.3-1.5,6.6-1.5c2.5,0,4.6,0.6,6.3,1.7c1.7,1.1,2.5,2.9,2.5,5.3v0.8c-3.5,0-7.1,0.2-10.8,0.6
	c-3.7,0.4-7.1,1.2-10.1,2.3c-3,1.2-5.5,2.8-7.4,5c-1.9,2.2-2.9,5-2.9,8.5c0,2.9,0.6,5.3,1.7,7.2c1.1,2,2.5,3.5,4.3,4.7
	c1.7,1.2,3.6,2,5.7,2.5c2.1,0.5,4.1,0.8,6.1,0.8c2.9,0,5.7-0.6,8.2-1.7c2.5-1.1,4.4-2.7,5.6-4.7h0.3v5.2h14.7v-24.5
	c0-4.4-0.4-8.3-1.2-11.5c-0.8-3.2-2.1-5.9-3.9-8c-1.8-2.1-4.1-3.7-6.9-4.7c-2.8-1-6.3-1.5-10.4-1.5c-4,0-7.9,0.7-11.7,2.1
	c-3.8,1.4-7.2,3.4-10,6.2L10.5,120.8z M31.8,134.6c0,3.1-0.9,5.5-2.6,7.3c-1.7,1.8-4.2,2.7-7.5,2.7c-0.8,0-1.6-0.1-2.4-0.2
	c-0.8-0.2-1.6-0.4-2.2-0.8c-0.7-0.4-1.2-0.9-1.6-1.6c-0.4-0.7-0.6-1.4-0.6-2.3c0-1.4,0.5-2.6,1.4-3.5c0.9-0.9,2.1-1.5,3.5-2
	c1.4-0.5,3-0.8,4.8-0.9c1.8-0.2,3.6-0.2,5.3-0.2h2.1V134.6z"/>
<path class="st1" d="M245.5,110.8c2.4-2.3,5.4-4,8.8-5.1c3.5-1.1,7.1-1.7,10.7-1.7c2.3,0,4.7,0.3,7.1,0.9c2.4,0.6,4.5,1.6,6.5,2.9
	c2,1.3,3.6,3,4.8,5c1.2,2.1,1.9,4.5,1.9,7.5c0,2.3-0.4,4.2-1.3,5.9c-0.8,1.6-1.9,3-3.3,4.1c-1.3,1.1-2.8,2-4.5,2.6
	c-1.7,0.7-3.4,1.2-5.1,1.6c-3.3,0.8-5.8,1.5-7.3,2.2c-1.6,0.7-2.3,1.8-2.3,3.3c0,1.6,0.6,2.7,1.9,3.3c1.3,0.6,2.6,0.9,3.9,0.9
	c2.3,0,4.6-0.5,6.6-1.6c2.1-1,3.8-2.3,5.3-3.9l9,9.5c-2.5,2.5-5.7,4.3-9.5,5.6c-3.8,1.3-7.7,1.9-11.7,1.9c-2.5,0-5-0.3-7.4-0.9
	c-2.5-0.6-4.7-1.5-6.7-2.8c-2-1.3-3.6-3-4.8-5.1c-1.2-2.1-1.9-4.7-1.9-7.8c0-2.3,0.5-4.4,1.4-6.1c0.9-1.7,2.1-3.1,3.6-4.3
	c1.5-1.2,3.2-2.1,5-2.8c1.9-0.7,3.7-1.3,5.5-1.7c3.1-0.7,5.4-1.4,6.8-2c1.4-0.6,2.1-1.6,2.1-2.9c0-1.4-0.6-2.4-1.9-3
	c-1.3-0.6-2.7-0.9-4.2-0.9c-2,0-3.8,0.4-5.6,1.3c-1.8,0.8-3.3,1.9-4.6,3.1L245.5,110.8z"/>
<path class="st2" d="M384.1,156.5c-2.7,9.4-10.1,16.9-19.6,19.4c-9.5,2.6-19.7,0-26.8-6.7c-7.8-7.4-13.3-16.9-15.8-27.3
	c-4.1-17.1-3.4-35.1,1.9-51.9c6.9-21.6,24.2-38.5,46.1-44.7c20.4-5.8,35-24.1,36.2-45.3l4.3,6.8c7.6,12.1,7.2,27.7-1,39.4
	c-8.2,11.7-22.7,17.5-36.7,14.5l0.8,0.4c9.4,5.3,20.9,5.2,30.2-0.3c6.5-3.8,11.4-9.9,13.7-17.1l0.5,2.3c2.9,14-4.1,28.1-17,34.3
	c-12.9,6.1-32.7,1.3-39.3-8.5c0,0,4.8,17.3,22.2,21.2c10.3,2.3,24.8-0.9,30.3-10.8v3.3c-0.4,13.5-7.4,24.6-16.5,28.3
	c-9.1,3.8-22.7,2.1-30.9-3.3c-10.5-6.9-15.6-15.7-16.7-24.6l-0.1,3c-0.6,13,6.8,24.9,17.7,32.6c10.6,7.5,25.5,9.6,37.9,5.8l-1.4,2.3
	c-8.3,13.2-26.2,19-41,14.2c-14.8-4.8-27.6-18.6-26.1-36.5c-0.9,10.9,0.6,24.3,7.5,35.1C353.1,155.8,369.3,162.2,384.1,156.5
	 M337.6,177.6c-17.8-15.8-26.2-39.9-22.2-63.4c-4.7,27.4-14.6,53.4-47.2,63.4c25.1,1.3,39.9-2.4,43.9-22.8
	C311.8,169.5,320.9,179.2,337.6,177.6"/>
<g>
	<path class="st3" d="M111.7,204.4l-5.4-8.5h3.6l3.3,5.6l3.4-5.6h3.5l-5.4,8.4v5.6h-3.1V204.4z"/>
	<path class="st3" d="M120,202.9L120,202.9c0-4,3.1-7.3,7.5-7.3c4.3,0,7.4,3.2,7.4,7.2v0c0,4-3.1,7.2-7.5,7.2
		C123.1,210.1,120,206.9,120,202.9z M131.7,202.9L131.7,202.9c0-2.4-1.8-4.4-4.2-4.4s-4.2,2-4.2,4.4v0c0,2.4,1.8,4.4,4.2,4.4
		C130,207.3,131.7,205.3,131.7,202.9z"/>
	<path class="st3" d="M137.2,203.9v-8h3.1v7.9c0,2.3,1.1,3.5,3,3.5c1.9,0,3-1.1,3-3.4v-8h3.1v7.9c0,4.2-2.4,6.3-6.1,6.3
		C139.5,210.1,137.2,208,137.2,203.9z"/>
	<path class="st3" d="M152.3,195.9h6.4c1.8,0,3.2,0.5,4.1,1.4c0.8,0.8,1.2,1.9,1.2,3.2v0c0,2.3-1.2,3.7-3,4.3l3.4,5h-3.6l-3-4.5
		h-2.4v4.5h-3.1V195.9z M158.6,202.7c1.5,0,2.4-0.8,2.4-2v0c0-1.3-0.9-2-2.4-2h-3.1v4H158.6z"/>
</g>
<g>
	<path class="st4" d="M174.2,195.8h3.1V207h7v2.8h-10.1V195.8z"/>
	<path class="st4" d="M186.4,195.8h10.6v2.7h-7.5v2.8h6.6v2.7h-6.6v2.9h7.6v2.7h-10.7V195.8z"/>
	<path class="st4" d="M198.9,202.8L198.9,202.8c0-4,3.1-7.3,7.3-7.3c2.5,0,4,0.7,5.5,1.9l-1.9,2.3c-1.1-0.9-2-1.4-3.7-1.4
		c-2.2,0-4,2-4,4.4v0c0,2.6,1.8,4.4,4.2,4.4c1.1,0,2.1-0.3,2.9-0.8v-2h-3.1v-2.7h6.1v6.1c-1.4,1.2-3.4,2.2-6,2.2
		C201.9,210,198.9,206.9,198.9,202.8z"/>
	<path class="st4" d="M219.8,195.7h2.8l6,14.1h-3.2l-1.3-3.1h-5.9l-1.3,3.1h-3.1L219.8,195.7z M223.1,203.9l-1.9-4.5l-1.9,4.5H223.1
		z"/>
	<path class="st4" d="M229.1,202.8L229.1,202.8c0-4,3-7.3,7.3-7.3c2.6,0,4.2,0.9,5.5,2.2l-2,2.3c-1.1-1-2.2-1.6-3.6-1.6
		c-2.4,0-4.1,2-4.1,4.4v0c0,2.4,1.7,4.4,4.1,4.4c1.6,0,2.6-0.6,3.7-1.6l2,2c-1.4,1.5-3,2.5-5.7,2.5
		C232.2,210,229.1,206.8,229.1,202.8z"/>
	<path class="st4" d="M248,204.2l-5.4-8.5h3.6l3.3,5.6l3.4-5.6h3.5l-5.4,8.4v5.6H248V204.2z"/>
</g>
<g>
	<path class="st4" d="M33.6,195.8h3.1V207h7v2.8H33.6V195.8z"/>
	<path class="st4" d="M45.7,195.8h10.6v2.7h-7.5v2.8h6.6v2.7h-6.6v2.9h7.6v2.7H45.7V195.8z"/>
	<path class="st4" d="M63.7,195.7h2.8l6,14.1h-3.2l-1.3-3.1h-5.9l-1.3,3.1h-3.1L63.7,195.7z M67,203.9l-1.9-4.5l-1.9,4.5H67z"/>
	<path class="st4" d="M71.3,195.8h3.4l3.7,9.9l3.7-9.9h3.3l-5.7,14.1H77L71.3,195.8z"/>
	<path class="st4" d="M87.3,195.8h10.6v2.7h-7.5v2.8H97v2.7h-6.6v2.9H98v2.7H87.3V195.8z"/>
</g>
</svg>
