<?xml version="1.0" encoding="UTF-8"?> <svg xmlns="http://www.w3.org/2000/svg" xmlns:xlink="http://www.w3.org/1999/xlink" id="Слой_1" data-name="Слой 1" viewBox="0 0 1080 500"> <defs> <style>.cls-1{fill:none;clip-rule:evenodd;}.cls-2{clip-path:url(#clip-path);}.cls-3{clip-path:url(#clip-path-2);}.cls-4{clip-path:url(#clip-path-3);}.cls-5{clip-path:url(#clip-path-4);}.cls-6{clip-path:url(#clip-path-5);}.cls-7{clip-path:url(#clip-path-6);}.cls-8{clip-path:url(#clip-path-7);}.cls-9{clip-path:url(#clip-path-8);}.cls-10{clip-path:url(#clip-path-9);}.cls-11{clip-path:url(#clip-path-10);}.cls-12{clip-path:url(#clip-path-11);}.cls-13{clip-path:url(#clip-path-12);}.cls-14{clip-path:url(#clip-path-13);}.cls-15{clip-path:url(#clip-path-14);}.cls-16{fill:#4ca045;}.cls-16,.cls-17,.cls-18{fill-rule:evenodd;}.cls-17{fill:#fff;}</style> <clipPath id="clip-path"> <path class="cls-1" d="M3229,639.48a33.29,33.29,0,0,1-23.67-9.76l-343.81-343.3a33.42,33.42,0,0,1,0-47.28l343.81-343.3a33.25,33.25,0,0,1,23.67-9.76,33.26,33.26,0,0,1,23.68,9.76l343.81,343.3a33.44,33.44,0,0,1,0,47.28l-343.81,343.3a33.3,33.3,0,0,1-23.68,9.76"></path> </clipPath> <clipPath id="clip-path-2"> <path class="cls-1" d="M3229-106.41a25.86,25.86,0,0,1,18.35,7.56l343.82,343.31a26,26,0,0,1,0,36.64L3247.31,624.41a26.07,26.07,0,0,1-36.7,0L2866.8,281.1a25.94,25.94,0,0,1,0-36.64L3210.61-98.85a25.9,25.9,0,0,1,18.35-7.56m0-15a40.74,40.74,0,0,0-29,12l-343.81,343.3a41,41,0,0,0,0,57.89L3200,635a41.11,41.11,0,0,0,58,0l343.82-343.31a41,41,0,0,0,0-57.89L3258-109.47a40.71,40.71,0,0,0-29-12"></path> </clipPath> <clipPath id="clip-path-3"> <path class="cls-1" d="M3572.33,262.78l-4.78-4.78L3233.75-75.3,3229-80.08l-4.78,4.78L2890.38,258l-4.79,4.78,4.79,4.78,333.8,333.3,4.78,4.77,4.79-4.77,333.8-333.3Zm-91.07-61.32a7.32,7.32,0,1,1,0,1.24,2.18,2.18,0,0,0,0-1.24Zm-20.15-40.18a7.33,7.33,0,1,1-7.69-7.67ZM3338.3,38.65a7.33,7.33,0,1,1-7.69-7.67ZM3297.08,3.57a7.33,7.33,0,0,1-6.71,7.29,2.18,2.18,0,0,0-1.24,0,7.32,7.32,0,1,1,7.95-7.29ZM3168.17-3.76a7.32,7.32,0,0,1,.62,14.62,2.15,2.15,0,0,0-1.23,0,7.32,7.32,0,0,1,.61-14.62ZM3127.31,31a7.31,7.31,0,1,1-7.68,7.67ZM3004.5,153.6a7.32,7.32,0,1,1-7.68,7.68Zm-27.83,49.1a7.32,7.32,0,1,1,0-1.24,2.18,2.18,0,0,0,0,1.24Zm0,121.39a7.32,7.32,0,1,1,0-1.24,2.16,2.16,0,0,0-.09.62A2.06,2.06,0,0,0,2976.67,324.09Zm20.15,40.19a7.33,7.33,0,1,1,7.68,7.67ZM3119.63,486.9a7.33,7.33,0,1,1,7.68,7.68ZM3160.84,522a7.34,7.34,0,0,1,6.72-7.3,2.15,2.15,0,0,0,1.23,0,7.32,7.32,0,1,1-7.95,7.3ZM3229,596.08l-61.24-61.16.45,0a13,13,0,0,0,2.55-25.66V460.39l47.81-47.75a2.53,2.53,0,0,0,.75-1.79v-21.6h4.79v-56.9h4.62l5.16,0v56.89h4.8v21.6a2.52,2.52,0,0,0,.74,1.79l47.82,47.75v48.89a13,13,0,0,0,2.54,25.66l.46,0Zm60.79-66.77a7.32,7.32,0,0,1-.62-14.62,2.18,2.18,0,0,0,1.24,0,7.32,7.32,0,0,1-.62,14.62Zm40.86-34.73a7.32,7.32,0,1,1,7.69-7.67ZM3453.42,372a7.32,7.32,0,1,1,7.69-7.67Zm27.84-49.1a7.32,7.32,0,1,1,0,1.24,2.44,2.44,0,0,0,.09-.62A2.58,2.58,0,0,0,3481.26,322.85Zm20.25,1.08c0-.15,0-.3,0-.46a13,13,0,0,0-25.7-2.53h-49l-47.82-47.75a2.56,2.56,0,0,0-1.79-.74h-21.63v-4.79h-35v14.65h35v-4.79h20.57L3424,325.26a2.55,2.55,0,0,0,1.8.75h50a13,13,0,0,0,12.73,10.42l.46,0-23.27,23.23a13,13,0,0,0-10.73-7.89V339.62a2.54,2.54,0,0,0-2.54-2.53h-31.62l-41.43-41.37a2.53,2.53,0,0,0-1.8-.74h-22v-4.79h-35v14.65h35v-4.79h20.95L3418,341.42a2.54,2.54,0,0,0,1.79.74h30.14v10.11a12.94,12.94,0,0,0-1.16,24.32l-24.37,24.33V364.41a2.5,2.5,0,0,0-.74-1.79l-44.43-44.36a2.53,2.53,0,0,0-1.79-.75h-21.82v-4.79h-35v14.65h35v-4.79h20.76l42.94,42.88V406l-19.2,19.18v-61a2.57,2.57,0,0,0-.74-1.8l-21.65-21.61a2.54,2.54,0,0,0-1.8-.75h-20.31v-4.78h-35V349.9h35v-4.79h19.26l20.16,20.14v63.37h-63.46l-20.17-20.14V389.25h4.8V354.32h-14.67v34.93h4.8v20.28a2.51,2.51,0,0,0,.74,1.8L3328.74,433a2.54,2.54,0,0,0,1.79.74h61.06l-19.2,19.17H3331.8L3288.86,410V389.25h4.79V354.32H3279v34.93h4.79V411a2.51,2.51,0,0,0,.75,1.79L3329,457.19a2.52,2.52,0,0,0,1.8.75h36.56l-24.37,24.32a13,13,0,0,0-24.35,1.16h-10.12V453.33a2.53,2.53,0,0,0-.75-1.79l-41.43-41.37V389.25h4.79V354.32h-14.66v34.93h4.8v22A2.49,2.49,0,0,0,3262,413l41.42,41.37V486a2.54,2.54,0,0,0,2.54,2.53h12.15a13,13,0,0,0,7.9,10.73l-23.26,23.23c0-.16,0-.3,0-.46a13,13,0,0,0-10.44-12.71V459.34a2.59,2.59,0,0,0-.74-1.8l-47.82-47.74V389.25h4.79V332.4c12.8,0,27.53,0,31-.06,6.49-.19,14-5.26,14.2-12.59A33.56,33.56,0,0,0,3286,297.6c-5.64-7-39.31-52.76-39.31-52.76s.38-37,.38-42.25,7-10.93,7-10.93h-49.65s7,5.67,7,10.93.37,42.25.37,42.25-33.65,45.81-39.3,52.76a33.55,33.55,0,0,0-7.7,22.15c.18,7.33,7.7,12.4,14.19,12.59,3.51.09,17.95.08,30.46.06v56.85h4.8V409.8l-47.82,47.74a2.55,2.55,0,0,0-.75,1.8v49.94A13,13,0,0,0,3155.2,522c0,.15,0,.3,0,.46L3132,499.21a13,13,0,0,0,7.89-10.72H3152a2.54,2.54,0,0,0,2.54-2.53V454.38L3196,413a2.46,2.46,0,0,0,.75-1.79v-22h4.8V354.32h-14.67v34.93h4.79v20.92l-41.42,41.37a2.53,2.53,0,0,0-.75,1.79v30.09h-10.13a13,13,0,0,0-24.35-1.16l-24.37-24.32h36.57a2.51,2.51,0,0,0,1.79-.75l44.43-44.36a2.51,2.51,0,0,0,.75-1.79V389.25h4.79V354.32h-14.67v34.93h4.8V410l-43,42.87h-40.58l-19.21-19.17h61.06a2.53,2.53,0,0,0,1.79-.74l21.66-21.62a2.55,2.55,0,0,0,.74-1.8V389.25h4.8V354.32h-14.67v34.93h4.79v19.23l-20.16,20.14h-63.47V365.25L3083,345.11h19.26v4.79h35V335.26h-35V340H3082a2.49,2.49,0,0,0-1.78.75l-21.66,21.61a2.57,2.57,0,0,0-.74,1.8v61L3038.6,406V365.46l42.93-42.88h20.77v4.79h35V312.72h-35v4.78h-21.82a2.51,2.51,0,0,0-1.79.75l-44.43,44.36a2.49,2.49,0,0,0-.74,1.79v36.51l-24.36-24.33a13,13,0,0,0-1.17-24.32V342.16h30.13a2.57,2.57,0,0,0,1.8-.74l41.43-41.37h21v4.79h35V290.19h-35V295h-22a2.52,2.52,0,0,0-1.79.74l-41.43,41.37h-31.62a2.54,2.54,0,0,0-2.54,2.53v12.13a13,13,0,0,0-10.73,7.89l-23.27-23.23.46,0A13,13,0,0,0,2982.09,326h50a2.53,2.53,0,0,0,1.79-.75l47.82-47.74h20.58v4.79h35V267.66h-35v4.79h-21.63a2.56,2.56,0,0,0-1.79.74l-47.82,47.75h-49a13,13,0,0,0-25.7,2.53c0,.16,0,.31,0,.46l-61.24-61.15,61.24-61.16c0,.15,0,.31,0,.46a13,13,0,0,0,25.7,2.53h49l47.82,47.75a2.52,2.52,0,0,0,1.79.74h21.63v4.8h35V243.25h-35V248h-20.58l-47.82-47.75a2.53,2.53,0,0,0-1.79-.75h-50a13,13,0,0,0-12.72-10.42l-.46,0,23.27-23.22a13,13,0,0,0,10.73,7.88v12.13a2.54,2.54,0,0,0,2.54,2.54h31.62l41.43,41.36a2.53,2.53,0,0,0,1.79.75h22v4.78h35V220.72h-35v4.78h-21l-41.43-41.36a2.53,2.53,0,0,0-1.8-.74H3008V173.28a12.95,12.95,0,0,0,1.17-24.31l24.36-24.33v36.5a2.53,2.53,0,0,0,.74,1.8l44.43,44.35a2.51,2.51,0,0,0,1.79.75h21.82v4.79h35V198.18h-35V203h-20.77l-42.93-42.89V119.57l19.2-19.18v61a2.54,2.54,0,0,0,.74,1.79l21.66,21.62a2.52,2.52,0,0,0,1.78.74h20.32v4.79h35V175.65h-35v4.79H3083l-20.17-20.13V96.94h63.47l20.16,20.13V136.3h-4.79v34.93h14.67V136.3h-4.8V116a2.54,2.54,0,0,0-.74-1.79l-21.65-21.62a2.53,2.53,0,0,0-1.8-.74h-61.06l19.21-19.18h40.58l43,42.88V136.3h-4.8v34.93h14.67V136.3h-4.79V114.52a2.51,2.51,0,0,0-.75-1.79L3129,68.37a2.51,2.51,0,0,0-1.79-.75h-36.56L3115,43.3a13,13,0,0,0,24.35-1.17h10.13V72.22a2.51,2.51,0,0,0,.75,1.79l41.42,41.37V136.3h-4.79v34.93h14.67V136.3h-4.8v-22a2.52,2.52,0,0,0-.74-1.79l-41.43-41.37V39.6a2.54,2.54,0,0,0-2.54-2.54h-12.14a13,13,0,0,0-7.9-10.72l23.26-23.23c0,.15,0,.3,0,.46a13,13,0,0,0,10.43,12.7v50a2.55,2.55,0,0,0,.75,1.79l47.82,47.75V136.3h-4.8v34.93h14.67V136.3h-4.79V114.71a2.59,2.59,0,0,0-.74-1.8l-47.82-47.74V16.27a13,13,0,0,0,10.43-12.7,13,13,0,0,0-13-13l-.45,0L3229-70.52l61.25,61.15-.46,0a13,13,0,0,0-13,13,13,13,0,0,0,10.44,12.7v48.9l-47.83,47.74a2.54,2.54,0,0,0-.74,1.8V136.3h-4.8v34.93h14.67V136.3h-4.79V115.76L3291.55,68a2.58,2.58,0,0,0,.74-1.79V16.27a13,13,0,0,0,10.44-12.7c0-.16,0-.31,0-.46L3326,26.34a13,13,0,0,0-7.9,10.72h-12.15a2.54,2.54,0,0,0-2.54,2.54V71.17L3262,112.54a2.52,2.52,0,0,0-.74,1.79v22h-4.8v34.93h14.66V136.3h-4.79V115.38L3307.72,74a2.51,2.51,0,0,0,.75-1.79V42.13h10.12a13,13,0,0,0,24.35,1.17l24.37,24.32h-36.56a2.52,2.52,0,0,0-1.8.75l-44.42,44.36a2.51,2.51,0,0,0-.75,1.79V136.3H3279v34.93h14.66V136.3h-4.79V115.57l42.94-42.88h40.59l19.2,19.18h-61.06a2.5,2.5,0,0,0-1.79.74l-21.65,21.62a2.54,2.54,0,0,0-.74,1.79V136.3h-4.8v34.93h14.67V136.3h-4.8V117.07l20.17-20.13h63.46v63.37l-20.16,20.13h-19.26v-4.79h-35V190.3h35v-4.79h20.31a2.57,2.57,0,0,0,1.8-.74l21.65-21.62a2.54,2.54,0,0,0,.74-1.79v-61l19.2,19.18v40.52L3376.39,203h-20.76v-4.8h-35v14.65h35V208h21.82a2.56,2.56,0,0,0,1.79-.74l44.43-44.36a2.53,2.53,0,0,0,.74-1.8v-36.5L3448.78,149a12.94,12.94,0,0,0,1.16,24.31v10.11H3419.8a2.51,2.51,0,0,0-1.79.75l-41.43,41.36h-20.95v-4.78h-35v14.64h35v-4.78h22a2.54,2.54,0,0,0,1.8-.75l41.43-41.36h31.62a2.54,2.54,0,0,0,2.54-2.54V173.8a13,13,0,0,0,10.73-7.89L3489,189.15c-.15,0-.3,0-.46,0a13,13,0,0,0-12.73,10.43h-50a2.54,2.54,0,0,0-1.8.74L3376.2,248h-20.57v-4.79h-35V257.9h35v-4.8h21.63a2.52,2.52,0,0,0,1.79-.74l47.82-47.74h49a13,13,0,0,0,25.7-2.54c0-.15,0-.31,0-.46l61.25,61.16Z"></path> </clipPath> <clipPath id="clip-path-4"> <path class="cls-1" d="M3250,16.52a13,13,0,0,0,13-12.95A13,13,0,0,0,3237.71-.5h-17.49a13,13,0,0,0-25.29,4.07,13,13,0,0,0,25.86,1.48h16.35A13,13,0,0,0,3250,16.52m0-20.27a7.32,7.32,0,1,1-7.34,7.32A7.33,7.33,0,0,1,3250-3.75m-42.11,14.64a7.35,7.35,0,0,1-7.34-7.32,7.34,7.34,0,0,1,14.67,0,7.34,7.34,0,0,1-7.33,7.32"></path> </clipPath> <clipPath id="clip-path-5"> <path class="cls-1" d="M3250,509a13,13,0,0,0-12.89,11.48h-16.34a12.95,12.95,0,1,0-.57,5.55h17.49A13,13,0,1,0,3250,509m-42.11,20.28a7.32,7.32,0,1,1,7.33-7.32,7.34,7.34,0,0,1-7.33,7.32m42.11,0a7.32,7.32,0,1,1,7.33-7.32,7.34,7.34,0,0,1-7.33,7.32"></path> </clipPath> <clipPath id="clip-path-6"> <path class="cls-1" d="M2982.34,241.76a13,13,0,1,0-17.05,12.29v17.46a13,13,0,1,0,5.56-.57V254.62a13,13,0,0,0,11.49-12.86m-5.64,42a7.34,7.34,0,1,1-7.33-7.32,7.33,7.33,0,0,1,7.33,7.32m-7.33-34.72a7.33,7.33,0,1,1,7.33-7.32,7.34,7.34,0,0,1-7.33,7.32"></path> </clipPath> <clipPath id="clip-path-7"> <path class="cls-1" d="M3501.54,241.76a13,13,0,1,0-14.46,12.86v16.32a13,13,0,1,0,5.56.57V254.05a13,13,0,0,0,8.9-12.29m-5.65,42a7.33,7.33,0,1,1-7.33-7.32,7.33,7.33,0,0,1,7.33,7.32m-7.33-34.72a7.33,7.33,0,1,1,7.33-7.32,7.34,7.34,0,0,1-7.33,7.32"></path> </clipPath> <clipPath id="clip-path-8"> <path class="cls-1" d="M3126.2-1425.66a25.53,25.53,0,0,1-18.15-7.48l-263.53-263.14a25.63,25.63,0,0,1,0-36.23l263.53-263.14a25.48,25.48,0,0,1,18.15-7.48,25.46,25.46,0,0,1,18.14,7.48l263.53,263.14a25.61,25.61,0,0,1,0,36.23l-263.53,263.14a25.5,25.5,0,0,1-18.14,7.48"></path> </clipPath> <clipPath id="clip-path-9"> <path class="cls-1" d="M3126.2-1997.37a19.84,19.84,0,0,1,14.06,5.79l263.53,263.14a19.88,19.88,0,0,1,0,28.08l-263.53,263.15a19.84,19.84,0,0,1-14.06,5.79,19.86,19.86,0,0,1-14.07-5.79L2848.6-1700.36a19.88,19.88,0,0,1,0-28.08l263.53-263.14a19.86,19.86,0,0,1,14.07-5.79m0-11.52a31.18,31.18,0,0,0-22.22,9.17l-263.54,263.13a31.15,31.15,0,0,0-9.18,22.19,31.13,31.13,0,0,0,9.18,22.19L3104-1429.07a31.22,31.22,0,0,0,22.22,9.17,31.25,31.25,0,0,0,22.22-9.17L3412-1692.21a31.13,31.13,0,0,0,9.18-22.19,31.15,31.15,0,0,0-9.18-22.19l-263.53-263.13a31.23,31.23,0,0,0-22.22-9.17"></path> </clipPath> <clipPath id="clip-path-10"> <path class="cls-1" d="M3389.38-1714.4l-3.66-3.66-255.86-255.47-3.66-3.67-3.67,3.67-255.85,255.47-3.67,3.66,3.67,3.67,255.85,255.47,3.67,3.66,3.66-3.66,255.86-255.47Zm-69.8-47a5.62,5.62,0,0,1,5.59-5.14,5.62,5.62,0,0,1,5.62,5.62,5.62,5.62,0,0,1-5.62,5.61,5.62,5.62,0,0,1-5.59-5.14,1.84,1.84,0,0,0,.06-.47A1.91,1.91,0,0,0,3319.58-1761.4Zm-15.45-30.79a5.61,5.61,0,0,1-5.61,5.32,5.62,5.62,0,0,1-5.62-5.61,5.63,5.63,0,0,1,5.34-5.6Zm-94.13-94a5.62,5.62,0,0,1-5.61,5.33,5.63,5.63,0,0,1-5.62-5.61,5.63,5.63,0,0,1,5.34-5.6Zm-31.59-26.89a5.62,5.62,0,0,1-5.15,5.59,1.84,1.84,0,0,0-.47-.07,1.92,1.92,0,0,0-.48.07,5.62,5.62,0,0,1-5.14-5.59,5.62,5.62,0,0,1,5.62-5.61A5.62,5.62,0,0,1,3178.41-1913.08Zm-98.81-5.61a5.62,5.62,0,0,1,5.62,5.61,5.61,5.61,0,0,1-5.14,5.59,1.85,1.85,0,0,0-.48-.07,1.84,1.84,0,0,0-.47.07,5.62,5.62,0,0,1-5.15-5.59A5.62,5.62,0,0,1,3079.6-1918.69Zm-31.32,26.62a5.62,5.62,0,0,1,5.34,5.6,5.62,5.62,0,0,1-5.62,5.61,5.62,5.62,0,0,1-5.61-5.33Zm-94.13,94a5.63,5.63,0,0,1,5.34,5.6,5.62,5.62,0,0,1-5.63,5.61,5.61,5.61,0,0,1-5.6-5.32Zm-21.34,37.63a5.62,5.62,0,0,1-5.59,5.14,5.62,5.62,0,0,1-5.62-5.61,5.62,5.62,0,0,1,5.62-5.62,5.62,5.62,0,0,1,5.59,5.14,1.91,1.91,0,0,0-.06.48A1.84,1.84,0,0,0,2932.81-1760.45Zm0,93a5.62,5.62,0,0,1-5.59,5.14,5.62,5.62,0,0,1-5.62-5.62,5.62,5.62,0,0,1,5.62-5.61,5.62,5.62,0,0,1,5.59,5.14,1.84,1.84,0,0,0-.06.47A1.86,1.86,0,0,0,2932.81-1667.4Zm15.45,30.8a5.62,5.62,0,0,1,5.6-5.33,5.63,5.63,0,0,1,5.63,5.61,5.63,5.63,0,0,1-5.34,5.6Zm94.13,94a5.62,5.62,0,0,1,5.61-5.33,5.62,5.62,0,0,1,5.62,5.61,5.62,5.62,0,0,1-5.34,5.6Zm31.59,26.89a5.63,5.63,0,0,1,5.15-5.59,1.84,1.84,0,0,0,.47.07,1.85,1.85,0,0,0,.48-.07,5.62,5.62,0,0,1,5.14,5.59,5.62,5.62,0,0,1-5.62,5.61A5.62,5.62,0,0,1,3074-1515.72Zm52.22,56.79-46.95-46.88.35,0a10,10,0,0,0,10-9.93,10,10,0,0,0-8-9.74v-37.47l36.65-36.6a1.93,1.93,0,0,0,.57-1.37v-16.56h3.68v-43.61h7.49v43.61h3.68v16.56a1.93,1.93,0,0,0,.57,1.37l36.65,36.6v37.47a10,10,0,0,0-8,9.74,10,10,0,0,0,9.95,9.93l.35,0Zm46.59-51.18a5.62,5.62,0,0,1-5.62-5.61,5.62,5.62,0,0,1,5.14-5.59,1.92,1.92,0,0,0,.48.07,1.84,1.84,0,0,0,.47-.07,5.63,5.63,0,0,1,5.15,5.59A5.62,5.62,0,0,1,3172.79-1510.11Zm31.32-26.62a5.63,5.63,0,0,1-5.34-5.6,5.63,5.63,0,0,1,5.62-5.61,5.62,5.62,0,0,1,5.61,5.33Zm94.13-94a5.63,5.63,0,0,1-5.34-5.6,5.62,5.62,0,0,1,5.62-5.61,5.62,5.62,0,0,1,5.61,5.33Zm21.34-37.63a5.62,5.62,0,0,1,5.59-5.14,5.62,5.62,0,0,1,5.62,5.61,5.62,5.62,0,0,1-5.62,5.62,5.62,5.62,0,0,1-5.59-5.14,1.86,1.86,0,0,0,.06-.48A1.84,1.84,0,0,0,3319.58-1668.35Zm15.52.83c0-.12,0-.24,0-.36a10,10,0,0,0-9.95-9.93,10,10,0,0,0-9.75,8h-37.53l-36.66-36.6a1.93,1.93,0,0,0-1.37-.56h-16.58v-3.68h-26.81v11.23h26.81v-3.67h15.77l36.66,36.6a2,2,0,0,0,1.38.57h38.33a10,10,0,0,0,9.75,8l.35,0-17.83,17.8a9.93,9.93,0,0,0-8.23-6v-9.3a1.94,1.94,0,0,0-1.94-1.94h-24.24l-31.76-31.71a2,2,0,0,0-1.37-.57h-16.87v-3.67h-26.81v11.23h26.81v-3.67h16.06l31.76,31.71a2,2,0,0,0,1.37.57h23.1v7.74a10,10,0,0,0-7,9.49,10,10,0,0,0,6.1,9.16L3276-1608.52v-28a2,2,0,0,0-.56-1.37l-34.06-34a1.92,1.92,0,0,0-1.37-.58h-16.73v-3.67h-26.81v11.23h26.81v-3.67h15.92l32.91,32.87v31.06l-14.72,14.7v-46.73a1.94,1.94,0,0,0-.57-1.38l-16.59-16.56a2,2,0,0,0-1.38-.58h-15.57v-3.66h-26.81v11.22h26.81v-3.67H3238l15.46,15.44v48.57h-48.64l-15.46-15.44v-14.74h3.68v-26.77h-11.25v26.77h3.68v15.55a1.91,1.91,0,0,0,.57,1.37l16.59,16.57a2,2,0,0,0,1.38.57h46.8l-14.72,14.7H3205l-32.92-32.87v-15.89h3.68v-26.77h-11.24v26.77h3.67v16.7a1.91,1.91,0,0,0,.58,1.37l34.05,34a1.94,1.94,0,0,0,1.37.57h28l-18.68,18.64a10,10,0,0,0-9.17-6.09,10,10,0,0,0-9.5,7h-7.76v-23.06a1.9,1.9,0,0,0-.57-1.37l-31.75-31.71v-16h3.67v-26.77h-11.24v26.77h3.68v16.84a1.94,1.94,0,0,0,.57,1.38l31.75,31.7v24.21a1.94,1.94,0,0,0,2,1.94h9.3a10,10,0,0,0,6.06,8.22l-17.83,17.8c0-.11,0-.23,0-.35a10,10,0,0,0-8-9.74v-38.27a1.94,1.94,0,0,0-.57-1.38l-36.65-36.6v-15.75h3.68V-1661c9.81,0,21.09,0,23.78,0,5-.15,10.74-4,10.89-9.65a25.74,25.74,0,0,0-5.92-17c-4.32-5.32-30.12-40.44-30.12-40.44s.29-28.36.29-32.38,5.33-8.38,5.33-8.38h-38.06s5.34,4.34,5.34,8.38.28,32.38.28,32.38-25.79,35.12-30.12,40.44a25.78,25.78,0,0,0-5.91,17c.15,5.62,5.91,9.5,10.88,9.65,2.69.07,13.76.06,23.35,0v43.57h3.68v15.75l-36.65,36.6a2,2,0,0,0-.58,1.38v38.27a10,10,0,0,0-8,9.74c0,.12,0,.24,0,.35l-17.83-17.8a9.94,9.94,0,0,0,6-8.22h9.32a1.94,1.94,0,0,0,1.94-1.94v-24.21l31.75-31.7a1.94,1.94,0,0,0,.57-1.38v-16.84h3.68v-26.77h-11.24v26.77h3.67v16l-31.75,31.71a1.94,1.94,0,0,0-.57,1.37v23.06h-7.76a10,10,0,0,0-9.5-7,10,10,0,0,0-9.17,6.09l-18.68-18.64h28a1.94,1.94,0,0,0,1.37-.57l34.06-34a1.94,1.94,0,0,0,.57-1.37v-16.7h3.67v-26.77h-11.24v26.77h3.68v15.89l-32.92,32.87h-31.11l-14.72-14.7h46.8a1.94,1.94,0,0,0,1.37-.57l16.6-16.57a2,2,0,0,0,.57-1.37v-15.55h3.68v-26.77h-11.25v26.77H3063v14.74l-15.46,15.44h-48.64v-48.57l15.46-15.44h14.76v3.67h26.81v-11.22h-26.81v3.66h-15.57a1.91,1.91,0,0,0-1.37.58l-16.6,16.56a2,2,0,0,0-.57,1.38v46.73l-14.72-14.7v-31.06l32.91-32.87h15.92v3.67h26.81v-11.23h-26.81v3.66h-16.72a2,2,0,0,0-1.38.58l-34.05,34a1.9,1.9,0,0,0-.57,1.37v28l-18.67-18.65a9.93,9.93,0,0,0,6.09-9.15,10,10,0,0,0-7-9.49v-7.74h23.1a2,2,0,0,0,1.38-.57l31.75-31.71h16.06v3.67h26.81v-11.23h-26.81v3.68h-16.87a2,2,0,0,0-1.37.56l-31.76,31.71h-24.23a1.94,1.94,0,0,0-2,1.94v9.3a9.93,9.93,0,0,0-8.23,6l-17.83-17.8.35,0a10,10,0,0,0,9.75-8h38.34a2,2,0,0,0,1.37-.57l36.65-36.6h15.78v3.67h26.81v-11.23h-26.81v3.67h-16.58a2,2,0,0,0-1.37.57l-36.66,36.6H2937a10,10,0,0,0-9.75-8,10,10,0,0,0-9.95,9.93c0,.12,0,.24,0,.35l-46.95-46.87,46.95-46.87c0,.11,0,.23,0,.35a10,10,0,0,0,9.95,9.93,10,10,0,0,0,9.75-8h37.53l36.66,36.6a2,2,0,0,0,1.37.57h16.58v3.67h26.81v-11.23h-26.81v3.67h-15.78l-36.65-36.6a2,2,0,0,0-1.37-.57H2937a10,10,0,0,0-9.75-8h-.35l17.83-17.8a9.93,9.93,0,0,0,8.23,6v9.3a2,2,0,0,0,2,2h24.23l31.76,31.7a2,2,0,0,0,1.37.57h16.87v3.67h26.81v-11.23h-26.81v3.67h-16.06l-31.75-31.71a2,2,0,0,0-1.38-.56h-23.1V-1783a9.94,9.94,0,0,0,7-9.48,9.94,9.94,0,0,0-6.09-9.15l18.67-18.65v28a1.9,1.9,0,0,0,.57,1.37l34.05,34a2,2,0,0,0,1.38.58h16.72v3.67h26.81v-11.23h-26.81v3.67h-15.92l-32.91-32.86v-31.07l14.72-14.7v46.73a1.94,1.94,0,0,0,.57,1.37l16.6,16.58a1.93,1.93,0,0,0,1.37.56h15.57v3.68h26.81v-11.23h-26.81v3.67h-14.76l-15.46-15.43v-48.57h48.64l15.46,15.43v14.74h-3.68v26.77h11.25v-26.77h-3.68v-15.55a2,2,0,0,0-.57-1.37l-16.59-16.57a1.92,1.92,0,0,0-1.38-.57h-46.8l14.73-14.7h31.1l32.92,32.87v15.89h-3.68v26.77h11.24v-26.77h-3.67V-1828a2,2,0,0,0-.57-1.37l-34.06-34a1.9,1.9,0,0,0-1.37-.57h-28l18.67-18.65a10,10,0,0,0,9.17,6.09,10,10,0,0,0,9.5-7h7.76v23.06a2,2,0,0,0,.57,1.38l31.75,31.7v16h-3.67v26.77h11.24v-26.77h-3.68v-16.84a2,2,0,0,0-.56-1.38l-31.76-31.7v-24.2a1.94,1.94,0,0,0-1.94-2h-9.31a10,10,0,0,0-6.06-8.21l17.83-17.81c0,.11,0,.23,0,.35a10,10,0,0,0,8,9.74v38.28a1.92,1.92,0,0,0,.58,1.37l36.65,36.6v15.75h-3.68v26.77h11.25v-26.77h-3.68v-16.55a1.94,1.94,0,0,0-.57-1.38l-36.65-36.6v-37.47a10,10,0,0,0,8-9.74,10,10,0,0,0-10-9.93h-.35l46.95-46.87,46.94,46.87h-.35a10,10,0,0,0-9.94,9.93,10,10,0,0,0,8,9.74v37.47l-36.66,36.6a1.94,1.94,0,0,0-.57,1.38v16.55h-3.68v26.77h11.25v-26.77h-3.68v-15.75l36.65-36.6a1.92,1.92,0,0,0,.58-1.37v-38.28a10,10,0,0,0,8-9.74c0-.12,0-.24,0-.35l17.83,17.81a10,10,0,0,0-6.06,8.21h-9.3a2,2,0,0,0-2,2v24.2l-31.75,31.7a1.94,1.94,0,0,0-.57,1.38v16.84h-3.68v26.77h11.24v-26.77h-3.67v-16l31.75-31.7a1.94,1.94,0,0,0,.57-1.38v-23.06h7.76a10,10,0,0,0,9.5,7,10,10,0,0,0,9.17-6.09l18.68,18.65h-28a1.9,1.9,0,0,0-1.37.57l-34.05,34a1.92,1.92,0,0,0-.58,1.37v16.7h-3.67v26.77h11.24v-26.77h-3.68v-15.89L3205-1860.1h31.11l14.72,14.7h-46.8a1.94,1.94,0,0,0-1.38.57l-16.59,16.57a2,2,0,0,0-.57,1.37v15.55h-3.68v26.77h11.25v-26.77h-3.68v-14.74l15.46-15.43h48.64v48.57L3238-1777.51h-14.76v-3.67h-26.81v11.23h26.81v-3.68h15.57a2,2,0,0,0,1.38-.56l16.59-16.58a1.9,1.9,0,0,0,.57-1.37v-46.73l14.72,14.7v31.07l-32.91,32.86h-15.92v-3.67h-26.81v11.23h26.81v-3.67H3240a2,2,0,0,0,1.37-.57l34.06-34a1.93,1.93,0,0,0,.56-1.37v-28l18.68,18.65a9.94,9.94,0,0,0-6.1,9.15,10,10,0,0,0,7,9.48v7.75h-23.1a2,2,0,0,0-1.37.57L3239.34-1743h-16.06v-3.67h-26.81v11.23h26.81v-3.67h16.87a2,2,0,0,0,1.37-.57l31.76-31.71h24.24a1.94,1.94,0,0,0,1.94-1.94v-9.3a9.93,9.93,0,0,0,8.23-6l17.83,17.8h-.35a10,10,0,0,0-9.75,8h-38.33a1.93,1.93,0,0,0-1.38.58l-36.66,36.59h-15.77v-3.67h-26.81v11.23h26.81v-3.67h16.58a1.9,1.9,0,0,0,1.37-.57l36.66-36.6h37.53a10,10,0,0,0,9.75,8,10,10,0,0,0,9.95-9.93c0-.12,0-.24,0-.35l47,46.87Z"></path> </clipPath> <clipPath id="clip-path-11"> <path class="cls-1" d="M3142.33-1903.15a10,10,0,0,0,10-9.93,10,10,0,0,0-10-9.93,10,10,0,0,0-9.43,6.81h-13.41a10,10,0,0,0-9.43-6.81,10,10,0,0,0-9.95,9.93,10,10,0,0,0,9.95,9.93,9.94,9.94,0,0,0,9.87-8.8h12.53a10,10,0,0,0,9.87,8.8m0-15.54a5.62,5.62,0,0,1,5.63,5.61,5.62,5.62,0,0,1-5.63,5.61,5.63,5.63,0,0,1-5.62-5.61,5.63,5.63,0,0,1,5.62-5.61m-32.27,11.22a5.62,5.62,0,0,1-5.62-5.61,5.62,5.62,0,0,1,5.62-5.61,5.62,5.62,0,0,1,5.62,5.61,5.62,5.62,0,0,1-5.62,5.61"></path> </clipPath> <clipPath id="clip-path-12"> <path class="cls-1" d="M3142.33-1525.65a10,10,0,0,0-9.87,8.8h-12.53a10,10,0,0,0-9.87-8.8,10,10,0,0,0-9.95,9.93,10,10,0,0,0,9.95,9.93,10,10,0,0,0,9.43-6.81h13.41a10,10,0,0,0,9.43,6.81,10,10,0,0,0,10-9.93,10,10,0,0,0-10-9.93m-32.27,15.54a5.63,5.63,0,0,1-5.63-5.61,5.63,5.63,0,0,1,5.63-5.61,5.62,5.62,0,0,1,5.62,5.61,5.62,5.62,0,0,1-5.62,5.61m32.27,0a5.63,5.63,0,0,1-5.62-5.61,5.63,5.63,0,0,1,5.62-5.61,5.62,5.62,0,0,1,5.62,5.61,5.62,5.62,0,0,1-5.62,5.61"></path> </clipPath> <clipPath id="clip-path-13"> <path class="cls-1" d="M2937.16-1730.51a10,10,0,0,0-9.94-9.94,10,10,0,0,0-9.95,9.94,10,10,0,0,0,6.82,9.42v13.38a10,10,0,0,0-6.82,9.43,10,10,0,0,0,9.95,9.93,10,10,0,0,0,9.94-9.93,10,10,0,0,0-8.81-9.87v-12.5a10,10,0,0,0,8.81-9.86m-4.32,32.23a5.62,5.62,0,0,1-5.62,5.61,5.62,5.62,0,0,1-5.62-5.61,5.62,5.62,0,0,1,5.62-5.62,5.62,5.62,0,0,1,5.62,5.62m-5.62-26.62a5.62,5.62,0,0,1-5.62-5.61,5.62,5.62,0,0,1,5.62-5.61,5.62,5.62,0,0,1,5.62,5.61,5.62,5.62,0,0,1-5.62,5.61"></path> </clipPath> <clipPath id="clip-path-14"> <path class="cls-1" d="M3335.12-1730.51a10,10,0,0,0-9.95-9.94,10,10,0,0,0-9.94,9.94,10,10,0,0,0,8.81,9.86v12.5a10,10,0,0,0-8.81,9.87,10,10,0,0,0,9.94,9.93,10,10,0,0,0,9.95-9.93,10,10,0,0,0-6.82-9.43v-13.38a9.94,9.94,0,0,0,6.82-9.42m-4.32,32.23a5.63,5.63,0,0,1-5.63,5.61,5.62,5.62,0,0,1-5.62-5.61,5.62,5.62,0,0,1,5.62-5.62,5.63,5.63,0,0,1,5.63,5.62m-5.63-26.62a5.62,5.62,0,0,1-5.62-5.61,5.62,5.62,0,0,1,5.62-5.62,5.63,5.63,0,0,1,5.63,5.62,5.63,5.63,0,0,1-5.63,5.61"></path> </clipPath> </defs> <path class="cls-16" d="M258.51,471.32a19.52,19.52,0,0,1-13.91-5.73l-202-201.7a19.65,19.65,0,0,1,0-27.78l202-201.7a19.74,19.74,0,0,1,27.81,0l202,201.7a19.65,19.65,0,0,1,0,27.78l-202,201.7a19.52,19.52,0,0,1-13.9,5.73"></path> <path class="cls-17" d="M258.51,33.09a15.22,15.22,0,0,1,10.78,4.44l202,201.7a15.25,15.25,0,0,1,0,21.53l-202,201.71a15.31,15.31,0,0,1-21.56,0l-202-201.71a15.25,15.25,0,0,1,0-21.53l202-201.7a15.2,15.2,0,0,1,10.78-4.44m0-8.83a24,24,0,0,0-17,7L39.47,233a24.06,24.06,0,0,0,0,34l202,201.71a24.15,24.15,0,0,0,34.07,0L477.54,267a24.06,24.06,0,0,0,0-34l-202-201.7a24,24,0,0,0-17-7"></path> <path class="cls-17" d="M460.25,250l-2.82-2.81L261.32,51.37l-2.81-2.81-2.82,2.81L59.58,247.19,56.77,250l2.81,2.81L255.69,448.63l2.82,2.81,2.81-2.81L457.43,252.81Zm-53.51-36a4.31,4.31,0,1,1,0,.73,1.36,1.36,0,0,0,0-.73Zm-11.84-23.6a4.31,4.31,0,1,1-4.52-4.51Zm-72.16-72.05a4.3,4.3,0,1,1-4.51-4.51ZM298.53,97.7a4.31,4.31,0,0,1-3.95,4.29,1.36,1.36,0,0,0-.36,0,1.5,1.5,0,0,0-.37,0,4.3,4.3,0,1,1,4.68-4.29Zm-75.74-4.3a4.3,4.3,0,0,1,.36,8.59,1.32,1.32,0,0,0-.72,0,4.3,4.3,0,0,1,.36-8.59Zm-24,20.41a4.3,4.3,0,1,1-4.51,4.51Zm-72.15,72.05a4.3,4.3,0,1,1-4.52,4.51ZM110.28,214.7a4.31,4.31,0,1,1,0-.73,1.14,1.14,0,0,0,0,.37A1.12,1.12,0,0,0,110.28,214.7Zm0,71.32a4.3,4.3,0,1,1,0-.72,1.32,1.32,0,0,0,0,.72Zm11.83,23.61a4.31,4.31,0,1,1,4.52,4.51Zm72.16,72.05a4.31,4.31,0,1,1,4.51,4.51Zm24.21,20.61a4.3,4.3,0,0,1,4-4.28,1.32,1.32,0,0,0,.72,0,4.3,4.3,0,1,1-4.67,4.28Zm40,43.53-36-35.93h.27a7.61,7.61,0,0,0,1.49-15.07V366.1l28.1-28.05a1.49,1.49,0,0,0,.44-1.05V324.31h2.81V290.88h5.75v33.43h2.82V337a1.48,1.48,0,0,0,.43,1.05l28.1,28.05v28.73a7.61,7.61,0,0,0,1.49,15.07h.27Zm35.71-39.23a4.3,4.3,0,0,1-.37-8.58,1.5,1.5,0,0,0,.37.05,1.36,1.36,0,0,0,.36-.05,4.3,4.3,0,0,1-.36,8.58Zm24-20.4a4.3,4.3,0,1,1,4.51-4.51Zm72.15-72.05a4.3,4.3,0,1,1,4.52-4.51Zm16.36-28.84a4.3,4.3,0,1,1,0,.72,1.32,1.32,0,0,0,0-.72Zm11.9.63c0-.09,0-.18,0-.27a7.63,7.63,0,0,0-15.1-1.49H374.78l-28.09-28.06a1.53,1.53,0,0,0-1.06-.43H332.92v-2.81H312.37v8.6h20.55v-2.81H345l28.1,28a1.5,1.5,0,0,0,1.06.44h29.38a7.63,7.63,0,0,0,7.47,6.12h.28l-13.67,13.65a7.65,7.65,0,0,0-6.31-4.64v-7.12a1.49,1.49,0,0,0-1.49-1.49H371.25l-24.34-24.3a1.46,1.46,0,0,0-1.06-.44H332.92V266.1H312.37v8.61h20.55V271.9h12.32l24.34,24.3a1.48,1.48,0,0,0,1.05.44h17.71v5.94a7.61,7.61,0,0,0-.69,14.29l-14.31,14.29V309.71a1.49,1.49,0,0,0-.44-1l-26.1-26.07a1.49,1.49,0,0,0-1.06-.43H332.92v-2.82H312.37V288h20.55v-2.81h12.21l25.22,25.19v23.81l-11.28,11.27V309.58a1.53,1.53,0,0,0-.43-1.05l-12.73-12.7a1.48,1.48,0,0,0-1.05-.44H332.92v-2.81H312.37v8.61h20.55v-2.82h11.32l11.85,11.83v37.23H318.8L307,335.61v-11.3h2.82V303.78h-8.62v20.53H304v11.91a1.5,1.5,0,0,0,.44,1.06L317.13,350a1.53,1.53,0,0,0,1.05.43h35.88l-11.28,11.27H318.92L293.7,336.49V324.31h2.81V303.78H287.9v20.53h2.81V337.1a1.5,1.5,0,0,0,.44,1.06l26.1,26.06a1.5,1.5,0,0,0,1.06.44h21.48L325.47,379a7.63,7.63,0,0,0-14.31.68h-5.94V362a1.5,1.5,0,0,0-.44-1.06l-24.34-24.3V324.31h2.81V303.78h-8.61v20.53h2.82v12.9a1.49,1.49,0,0,0,.43,1.06l24.34,24.3v18.55a1.49,1.49,0,0,0,1.49,1.49h7.14a7.62,7.62,0,0,0,4.64,6.3l-13.67,13.65c0-.09,0-.17,0-.27a7.62,7.62,0,0,0-6.13-7.46V365.49a1.49,1.49,0,0,0-.43-1.06l-28.1-28.05V324.31H270v-33.4c7.52,0,16.17,0,18.23,0,3.81-.11,8.23-3.09,8.34-7.4a19.68,19.68,0,0,0-4.53-13c-3.32-4.08-23.09-31-23.09-31s.22-21.74.22-24.82,4.08-6.42,4.08-6.42H244.09s4.09,3.32,4.09,6.42.21,24.82.21,24.82-19.77,26.92-23.09,31a19.72,19.72,0,0,0-4.52,13c.11,4.31,4.52,7.29,8.33,7.4,2.07.05,10.55.05,17.9,0v33.4h2.82v12.07l-28.09,28.05a1.5,1.5,0,0,0-.44,1.06v29.34a7.62,7.62,0,0,0-6.13,7.46c0,.09,0,.18,0,.27l-13.67-13.65a7.6,7.6,0,0,0,4.64-6.3h7.14a1.49,1.49,0,0,0,1.49-1.49V362.57l24.34-24.3a1.5,1.5,0,0,0,.44-1.06v-12.9h2.82V303.78h-8.62v20.53h2.81V336.6l-24.33,24.3a1.5,1.5,0,0,0-.44,1.06v17.67h-6a7.63,7.63,0,0,0-14.31-.68l-14.32-14.29H198.7a1.5,1.5,0,0,0,1.06-.44l26.1-26.06a1.5,1.5,0,0,0,.44-1.06V324.31h2.81V303.78H220.5v20.53h2.82v12.18l-25.23,25.19H174.24L163,350.41h35.87a1.51,1.51,0,0,0,1-.43l12.72-12.7a1.5,1.5,0,0,0,.44-1.06V324.31h2.82V303.78h-8.62v20.53h2.82v11.3l-11.85,11.82H160.92V310.2l11.85-11.83h11.32v2.82h20.55v-8.61H184.09v2.81H172.15a1.49,1.49,0,0,0-1.05.44l-12.72,12.7a1.49,1.49,0,0,0-.44,1.05v35.83l-11.28-11.27V310.33l25.23-25.19h12.2V288h20.55v-8.61H184.09v2.81H171.27a1.51,1.51,0,0,0-1.06.43l-26.1,26.07a1.45,1.45,0,0,0-.43,1v21.45l-14.32-14.3a7.61,7.61,0,0,0-.68-14.28v-5.94h17.7a1.5,1.5,0,0,0,1.06-.44l24.34-24.3h12.31v2.81h20.55V266.1H184.09v2.82H171.16a1.46,1.46,0,0,0-1.06.44l-24.34,24.3H127.19a1.5,1.5,0,0,0-1.5,1.49v7.12a7.64,7.64,0,0,0-6.3,4.64l-13.67-13.65H106a7.63,7.63,0,0,0,7.47-6.12h29.39a1.49,1.49,0,0,0,1.05-.44l28.1-28h12.09v2.81h20.55v-8.6H184.09v2.81H171.38a1.53,1.53,0,0,0-1,.43l-28.1,28.06H113.46a7.63,7.63,0,0,0-15.1,1.49c0,.09,0,.18,0,.27L62.39,250l36-35.93c0,.09,0,.18,0,.27a7.63,7.63,0,0,0,15.1,1.49h28.77l28.1,28a1.49,1.49,0,0,0,1,.44h12.71v2.81h20.55v-8.6H184.09v2.81H172l-28.1-28.06a1.49,1.49,0,0,0-1.05-.44H113.46a7.64,7.64,0,0,0-7.47-6.12l-.27,0,13.67-13.65a7.61,7.61,0,0,0,6.3,4.63v7.13a1.5,1.5,0,0,0,1.5,1.49h18.57l24.34,24.3a1.5,1.5,0,0,0,1.06.44h12.93v2.81h20.55v-8.6H184.09v2.81H171.78l-24.34-24.3a1.5,1.5,0,0,0-1.06-.44h-17.7v-5.94a7.61,7.61,0,0,0,.68-14.29l14.32-14.29v21.45a1.48,1.48,0,0,0,.43,1.05l26.1,26.06a1.52,1.52,0,0,0,1.06.44h12.82v2.81h20.55v-8.6H184.09v2.81h-12.2l-25.23-25.19V165.86l11.28-11.27v35.82a1.46,1.46,0,0,0,.44,1.05l12.72,12.7a1.49,1.49,0,0,0,1.05.44h11.94v2.82h20.55v-8.61H184.09v2.81H172.77l-11.85-11.83V152.56h37.29l11.85,11.83v11.3h-2.82v20.52h8.62V175.69H213V163.77a1.49,1.49,0,0,0-.44-1.05L199.88,150a1.45,1.45,0,0,0-1-.43H163l11.28-11.27h23.85l25.23,25.19v12.18H220.5v20.52h8.61V175.69H226.3v-12.8a1.49,1.49,0,0,0-.44-1l-26.1-26.06a1.5,1.5,0,0,0-1.06-.44H177.22l14.32-14.29a7.63,7.63,0,0,0,14.31-.69h6V138a1.46,1.46,0,0,0,.44,1.05l24.33,24.31v12.29h-2.81v20.52h8.62V175.69h-2.82V162.78a1.49,1.49,0,0,0-.44-1.05l-24.34-24.3V118.88a1.5,1.5,0,0,0-1.49-1.5h-7.14a7.6,7.6,0,0,0-4.64-6.29l13.67-13.65c0,.09,0,.17,0,.26a7.63,7.63,0,0,0,6.13,7.47v29.34a1.5,1.5,0,0,0,.44,1.06l28.09,28.05v12.07H247v20.52h8.62V175.69h-2.81V163a1.49,1.49,0,0,0-.44-1.05l-28.1-28V105.17a7.61,7.61,0,0,0-1.49-15.08h-.27l36-35.93,36,35.93h-.27a7.61,7.61,0,0,0-1.49,15.08V133.9l-28.1,28a1.48,1.48,0,0,0-.43,1.05v12.69h-2.82v20.52H270V175.69h-2.82V163.62l28.1-28.05a1.49,1.49,0,0,0,.43-1.06V105.17a7.64,7.64,0,0,0,6.14-7.47c0-.09,0-.17,0-.26l13.67,13.65a7.62,7.62,0,0,0-4.64,6.29h-7.14a1.5,1.5,0,0,0-1.49,1.5v18.55l-24.34,24.3a1.48,1.48,0,0,0-.43,1.05v12.91h-2.82v20.52h8.61V175.69h-2.81V163.4l24.34-24.31a1.46,1.46,0,0,0,.44-1.05V120.36h5.94a7.63,7.63,0,0,0,14.31.69l14.32,14.29H318.31a1.5,1.5,0,0,0-1.06.44l-26.1,26.06a1.49,1.49,0,0,0-.44,1v12.8H287.9v20.52h8.61V175.69H293.7V163.51l25.23-25.19h23.84l11.29,11.27H318.18a1.48,1.48,0,0,0-1.05.43l-12.72,12.7a1.49,1.49,0,0,0-.44,1.05v11.92h-2.82v20.52h8.62V175.69H307v-11.3l11.85-11.83h37.29v37.23l-11.85,11.83H332.92v-2.81H312.37v8.61h20.55V204.6h11.94a1.48,1.48,0,0,0,1.05-.44l12.73-12.7a1.49,1.49,0,0,0,.43-1.05V154.59l11.28,11.27v23.81l-25.22,25.19H332.92v-2.81H312.37v8.6h20.55v-2.81h12.82a1.5,1.5,0,0,0,1.06-.44l26.1-26.06a1.49,1.49,0,0,0,.44-1.05V168.84l14.31,14.29a7.61,7.61,0,0,0,.69,14.29v5.94H370.63a1.48,1.48,0,0,0-1.05.44l-24.34,24.3H332.92v-2.81H312.37v8.6h20.55v-2.81h12.93a1.5,1.5,0,0,0,1.06-.44l24.34-24.3h18.58a1.49,1.49,0,0,0,1.49-1.49v-7.13a7.62,7.62,0,0,0,6.31-4.63l13.67,13.65-.28,0a7.64,7.64,0,0,0-7.47,6.13H374.17a1.46,1.46,0,0,0-1.06.44L345,241.34H332.92v-2.81H312.37v8.6h20.55v-2.81h12.71a1.5,1.5,0,0,0,1.06-.44l28.09-28h28.77a7.63,7.63,0,0,0,15.1-1.49c0-.09,0-.18,0-.27l36,35.93Z"></path> <path class="cls-17" d="M270.88,105.32a7.62,7.62,0,1,0-7.24-10H253.37a7.63,7.63,0,1,0,.33,3.26h9.61a7.63,7.63,0,0,0,7.57,6.75m0-11.92a4.31,4.31,0,1,1-4.31,4.3,4.31,4.31,0,0,1,4.31-4.3M246.13,102a4.31,4.31,0,1,1,4.31-4.31,4.31,4.31,0,0,1-4.31,4.31"></path> <path class="cls-17" d="M270.88,394.68a7.62,7.62,0,0,0-7.57,6.74h-9.6a7.62,7.62,0,1,0-.34,3.26h10.27a7.62,7.62,0,1,0,7.24-10m-24.74,11.91a4.3,4.3,0,1,1,4.3-4.3,4.32,4.32,0,0,1-4.3,4.3m24.74,0a4.3,4.3,0,1,1,4.3-4.3,4.31,4.31,0,0,1-4.3,4.3"></path> <path class="cls-17" d="M113.61,237.65a7.63,7.63,0,1,0-10,7.22v10.26a7.62,7.62,0,1,0,3.27-.34v-9.58a7.63,7.63,0,0,0,6.75-7.56m-3.32,24.7a4.31,4.31,0,1,1-4.3-4.3,4.31,4.31,0,0,1,4.3,4.3M106,242a4.3,4.3,0,1,1,4.3-4.3A4.31,4.31,0,0,1,106,242"></path> <path class="cls-17" d="M418.65,237.65a7.63,7.63,0,1,0-8.49,7.56v9.58a7.63,7.63,0,1,0,3.26.34V244.87a7.62,7.62,0,0,0,5.23-7.22m-3.31,24.7a4.31,4.31,0,1,1-4.31-4.3,4.31,4.31,0,0,1,4.31,4.3M411,242a4.31,4.31,0,1,1,4.31-4.3A4.31,4.31,0,0,1,411,242"></path> <path class="cls-18" d="M1047.57,319.47a48,48,0,0,0-1.92-13.92,30.78,30.78,0,0,0-5.71-10.9,26.43,26.43,0,0,0-9.3-7.13,30.17,30.17,0,0,0-12.83-2.56,31.29,31.29,0,0,0-13.09,2.63,29.52,29.52,0,0,0-9.75,7,30.31,30.31,0,0,0-6.09,10.2,35.31,35.31,0,0,0-2.12,12.13A37,37,0,0,0,989,330.06a27.87,27.87,0,0,0,6.54,10.2,30,30,0,0,0,10.46,6.6,38.07,38.07,0,0,0,13.85,2.38,44.14,44.14,0,0,0,10.27-1.09,49.3,49.3,0,0,0,7.76-2.5,29.44,29.44,0,0,0,5.32-2.89c1.37-1,2.4-1.69,3.08-2.12L1038.72,329a40.66,40.66,0,0,1-6.54,3.65,27.59,27.59,0,0,1-11.68,2.12q-7.31,0-11.48-3.66a11.48,11.48,0,0,1-4.3-8.53h42.85Zm-42.85-8.72a10,10,0,0,1,.84-3.92,11.77,11.77,0,0,1,2.43-3.65,12.82,12.82,0,0,1,4-2.76,13.61,13.61,0,0,1,5.64-1.09,12.79,12.79,0,0,1,5.52,1.09,12.45,12.45,0,0,1,3.85,2.76,11.73,11.73,0,0,1,2.31,3.65,10.88,10.88,0,0,1,.77,3.92Z"></path> <path class="cls-18" d="M915.62,287h17.71l.51,6.54a21.12,21.12,0,0,1,7.76-5.77,24.05,24.05,0,0,1,10.07-2.18q10.4,0,16.49,6.16T974.25,310v37.21H955.78V312.54a11.85,11.85,0,0,0-2.5-8,8.68,8.68,0,0,0-7-3,12.42,12.42,0,0,0-5.38,1.1,11.2,11.2,0,0,0-3.85,2.88,12,12,0,0,0-2.31,4.17,16.12,16.12,0,0,0-.77,5.07v32.33H915.62Z"></path> <rect x="881.05" y="287.01" width="18.48" height="60.17"></rect> <rect x="880.41" y="261.6" width="19.76" height="16.55"></rect> <path class="cls-18" d="M870.22,339.23a31.7,31.7,0,0,1-9.82,7,32.74,32.74,0,0,1-14.43,3,35.68,35.68,0,0,1-13.28-2.37,29.33,29.33,0,0,1-10.2-6.67,30.75,30.75,0,0,1-6.61-10.2,34.47,34.47,0,0,1-2.37-13,32,32,0,0,1,9.17-22.71,31.22,31.22,0,0,1,10.26-6.86,33.32,33.32,0,0,1,13-2.5,34.63,34.63,0,0,1,14.24,2.69,30.24,30.24,0,0,1,10.13,7.18l-11.16,12.06a22,22,0,0,0-5-4.1,14.93,14.93,0,0,0-7.83-1.8,12.85,12.85,0,0,0-6,1.35,14.42,14.42,0,0,0-4.49,3.53,15,15,0,0,0-2.83,5.07,19.13,19.13,0,0,0-1,6.09,18.42,18.42,0,0,0,1,5.84A15.85,15.85,0,0,0,835.9,328a14.81,14.81,0,0,0,4.49,3.66,12.4,12.4,0,0,0,6,1.41,15.65,15.65,0,0,0,8-1.86,20.44,20.44,0,0,0,5.13-4Z"></path> <rect x="781.76" y="287.01" width="18.48" height="60.17"></rect> <rect x="781.12" y="261.6" width="19.76" height="16.55"></rect> <path class="cls-18" d="M747.45,261.61v26.17a48.77,48.77,0,0,0-5-1.47,30.79,30.79,0,0,0-6.8-.58,32.41,32.41,0,0,0-11,2,31.1,31.1,0,0,0-10.14,6,30.3,30.3,0,0,0-7.44,10.08,32.65,32.65,0,0,0-2.89,14.17,38.2,38.2,0,0,0,2,12.9,30.18,30.18,0,0,0,5.59,9.75,24.21,24.21,0,0,0,8.34,6.22A24.75,24.75,0,0,0,730.51,349a22.08,22.08,0,0,0,10.08-2.24,22.85,22.85,0,0,0,7.24-5.59l.77,6h17.2V261.61Zm0,58.38a19.48,19.48,0,0,1-.64,5,11,11,0,0,1-2.12,4.23,10.84,10.84,0,0,1-3.72,2.89,12,12,0,0,1-5.32,1.09q-6.42,0-9.63-4.17t-3.2-10.71q0-7.44,3.91-12.19t11-4.75a25.76,25.76,0,0,1,5.58.51,14.35,14.35,0,0,1,4.17,1.67Z"></path> <path class="cls-18" d="M694.53,319.47a48,48,0,0,0-1.92-13.92,30.94,30.94,0,0,0-5.71-10.9,26.62,26.62,0,0,0-9.3-7.13A30.17,30.17,0,0,0,664.77,285a31.29,31.29,0,0,0-13.09,2.63,29.52,29.52,0,0,0-9.75,7,30.5,30.5,0,0,0-6.1,10.2,35.3,35.3,0,0,0-2.11,12.13A37.22,37.22,0,0,0,636,330.06a28,28,0,0,0,6.55,10.2,30.07,30.07,0,0,0,10.45,6.6,38.16,38.16,0,0,0,13.86,2.38,44,44,0,0,0,10.26-1.09,49.45,49.45,0,0,0,7.77-2.5,29.44,29.44,0,0,0,5.32-2.89c1.37-1,2.39-1.69,3.08-2.12L685.68,329a40.66,40.66,0,0,1-6.54,3.65,27.59,27.59,0,0,1-11.68,2.12q-7.32,0-11.48-3.66a11.45,11.45,0,0,1-4.3-8.53h42.85Zm-42.85-8.72a10.19,10.19,0,0,1,.83-3.92,12,12,0,0,1,2.44-3.65,12.89,12.89,0,0,1,4-2.76,13.69,13.69,0,0,1,5.65-1.09,12.74,12.74,0,0,1,5.51,1.09,12.33,12.33,0,0,1,3.85,2.76,11.37,11.37,0,0,1,2.31,3.65,10.67,10.67,0,0,1,.77,3.92Z"></path> <polygon class="cls-18" points="535.89 261.6 554.24 261.6 576.56 301.76 598.37 261.6 616.85 261.6 620.83 347.18 601.45 347.18 599.01 291.24 581.31 324.6 571.3 324.6 552.57 291.63 550.39 347.18 531.91 347.18 535.89 261.6"></polygon> <path class="cls-18" d="M933.07,176.22a31.75,31.75,0,0,0-6.61-10.2,30.65,30.65,0,0,0-10.14-6.86,33.12,33.12,0,0,0-13.08-2.5,33.69,33.69,0,0,0-13.16,2.5,30.7,30.7,0,0,0-10.2,6.86,31.56,31.56,0,0,0-6.6,10.2,34.07,34.07,0,0,0,0,25,30.83,30.83,0,0,0,16.8,17.13,33,33,0,0,0,13.16,2.57,32.44,32.44,0,0,0,13.08-2.57,31.28,31.28,0,0,0,10.14-6.93,31.75,31.75,0,0,0,6.61-10.2,34.2,34.2,0,0,0,0-25ZM916.71,194.7a15.68,15.68,0,0,1-2.76,5.2,13.67,13.67,0,0,1-4.56,3.65,13.51,13.51,0,0,1-6.15,1.35,14,14,0,0,1-6.23-1.35,12.88,12.88,0,0,1-4.55-3.65,17.3,17.3,0,0,1-2.76-5.2,19,19,0,0,1,0-11.93,16.41,16.41,0,0,1,2.76-5.14A13.18,13.18,0,0,1,897,174a14,14,0,0,1,6.23-1.34,13.51,13.51,0,0,1,6.15,1.34,14,14,0,0,1,4.56,3.59,14.93,14.93,0,0,1,2.76,5.14,20.22,20.22,0,0,1,0,11.93Z"></path> <path class="cls-18" d="M865.2,210.93a31.74,31.74,0,0,1-9.82,7,32.74,32.74,0,0,1-14.43,3,35.68,35.68,0,0,1-13.28-2.37,29.33,29.33,0,0,1-10.2-6.67,30.75,30.75,0,0,1-6.61-10.2,34.51,34.51,0,0,1-2.37-13A32.16,32.16,0,0,1,817.66,166a31,31,0,0,1,10.27-6.86,33.24,33.24,0,0,1,13-2.51,34.62,34.62,0,0,1,14.24,2.7,30.24,30.24,0,0,1,10.14,7.18l-11.17,12.06a21.55,21.55,0,0,0-5-4.1,14.93,14.93,0,0,0-7.83-1.8,12.85,12.85,0,0,0-6,1.35,14.42,14.42,0,0,0-4.49,3.53,15.19,15.19,0,0,0-2.83,5.06,19.24,19.24,0,0,0-1,6.1,18.42,18.42,0,0,0,1,5.84,16,16,0,0,0,2.83,5.13,15,15,0,0,0,4.49,3.66,12.4,12.4,0,0,0,6,1.41,15.65,15.65,0,0,0,8-1.86,20.44,20.44,0,0,0,5.13-4Z"></path> <rect x="776.74" y="158.71" width="18.48" height="60.17"></rect> <rect x="776.1" y="133.3" width="19.76" height="16.55"></rect> <rect x="742.3" y="133.3" width="18.48" height="85.58"></rect> <rect x="707.86" y="158.71" width="18.48" height="60.17"></rect> <rect x="707.22" y="133.3" width="19.76" height="16.55"></rect> <path class="cls-18" d="M649.81,200.28a23.79,23.79,0,0,0,7.76,4.49,26.71,26.71,0,0,0,9.3,1.79,19.37,19.37,0,0,0,6.8-1,3.91,3.91,0,0,0,2.7-4,4.09,4.09,0,0,0-.58-2.12,5.35,5.35,0,0,0-2.12-1.79,26.15,26.15,0,0,0-4.3-1.74c-1.83-.59-4.17-1.28-7-2a46.83,46.83,0,0,1-6.86-2.37,24.81,24.81,0,0,1-6-3.66,16.82,16.82,0,0,1-4.24-5.26,16.51,16.51,0,0,1,.32-14.82,19,19,0,0,1,5.33-5.9A25.34,25.34,0,0,1,659,158a36.21,36.21,0,0,1,10.07-1.35,46.87,46.87,0,0,1,13.48,1.74,38.16,38.16,0,0,1,10.64,5.06l-7.82,12.19a39.32,39.32,0,0,0-6.74-3.46,22.39,22.39,0,0,0-8.53-1.54c-2.82,0-4.88.41-6.16,1.22a3.71,3.71,0,0,0-1.92,3.27q0,3,4,4.36t10.78,3.21q9.24,2.56,13.41,7.06t4.17,11.93a15.85,15.85,0,0,1-2.25,8.59,18.5,18.5,0,0,1-6,6,28.59,28.59,0,0,1-8.59,3.53,41.93,41.93,0,0,1-9.82,1.15,52.1,52.1,0,0,1-15.27-2.18,27.37,27.37,0,0,1-11.67-6.67Z"></path> <path class="cls-18" d="M569.82,158.71h17.71l.51,6.54a21.12,21.12,0,0,1,7.76-5.77,24.05,24.05,0,0,1,10.07-2.18q10.39,0,16.49,6.15t6.09,18.22v37.21H610V184.24a12,12,0,0,0-2.5-8,8.7,8.7,0,0,0-7-2.95,12.54,12.54,0,0,0-5.38,1.09,11.35,11.35,0,0,0-3.85,2.89,12,12,0,0,0-2.31,4.17,16.12,16.12,0,0,0-.77,5.07v32.33H569.82Z"></path> <rect x="533.33" y="133.3" width="19.37" height="85.58"></rect> </svg> 